[img]http://img864.imageshack.us/img864/9352/whiteot.jpg[/img]
[code]
Water For Elephants 2011 R5 LiNE XViD - IMAGiNE

Ripper ...........: IMAGiNE        IMDB Rating.......: 7.0/10                    
Video Codec.......: XVID           Release Date......: 21/05/11
Audio Codec.......: MP3            Theatre Date......: 22/04/11
Audio Bitrate.....: 128            Runtime.......: 1h 55mn
Subtitles.........: NIL            Language..........: ENGLISH
Resolution......: 720 x 304        IMDb URL..........: http://www.imdb.com/title/tt1067583/

DETAILS:

Video
ID                               : 0
Format                           : MPEG-4 Visual
Format profile                   : Advanced Simple@L5
Format settings, BVOP            : 2
Format settings, QPel            : No
Format settings, GMC             : No warppoints
Format settings, Matrix          : Default (MPEG)
Muxing mode                      : Packed bitstream
Codec ID                         : XVID
Codec ID/Hint                    : XviD
Duration                         : 1h 55mn
Bit rate                         : 1 914 Kbps
Width                            : 720 pixels
Height                           : 304 pixels
Display aspect ratio             : 2.35:1
Frame rate                       : 25.000 fps
Color space                      : YUV
Chroma subsampling               : 4:2:0
Bit depth                        : 8 bits
Scan type                        : Progressive
Compression mode                 : Lossy
Bits/(Pixel*Frame)               : 0.350
Stream size                      : 1.54 GiB (93%)
Writing library                  : XviD 61

Audio
ID                               : 1
Format                           : MPEG Audio
Format version                   : Version 1
Format profile                   : Layer 3
Mode                             : Joint stereo
Mode extension                   : MS Stereo
Codec ID                         : 55
Codec ID/Hint                    : MP3
Duration                         : 1h 55mn
Bit rate mode                    : Constant
Bit rate                         : 128 Kbps
Channel(s)                       : 2 channels
Sampling rate                    : 44.1 KHz
Compression mode                 : Lossy
Stream size                      : 106 MiB (6%)
Alignment                        : Split accross interleaves
Interleave, duration             : 40 ms (1.00 video frame)

Plot:
A veterinary student abandons his studies after his parents are killed and joins a traveling circus as their vet.

SOURCES:
VIDEO: ................. Water For Elephants DVD5 ELEKTRI4KA Thanx MAte  
AUDIO: ................. Thanx Matey 

NOTES:
IMAGiNE bringing you another release..........
Water For Elephants 2011 R5.......
Ok here we are with a nice R5.....

Video was good so not alot of work was needed thereMade a script to crop resize and so on....
Audio is LiNE we filtered synced and remuxed to our encode

Enjoy Folks!
[/code]
Screens:
[img]http://img837.imageshack.us/img837/9907/51210760.jpg[/img]
[img]http://img215.imageshack.us/img215/6024/82696795.jpg[/img]
[img]http://img849.imageshack.us/img849/9151/44070215.jpg[/img]
[img]http://img638.imageshack.us/img638/8480/18157213.jpg[/img]
[img]http://img808.imageshack.us/img808/4789/cee4aac3633a.jpg[/img]